# xmcd
#
# Track frame offsets:
#	150
#	16551
#	30777
#	44907
#	58659
#	70140
#	80659
#	95138
#	106419
#	123323
#	135549
#	146905
#	160626
#	171504
#	183305
#	202864
#	217743
#	235909
#	249577
#	262873
#	278126
#	291292
#	303978
#	324088
#	337137
#
# Disc length: 4651 seconds
#
# Revision: 0
# Processed by: cddbd v1.5.2PL0 Copyright (c) Steve Scherf et al.
# Submitted via: EasyCDDAExtractor 16.0.6.1
#
DISCID=65122919
DTITLE=Lancamentos Sertanejos
DYEAR=1900
DGENRE=
TTITLE0=Joao Lucas e Marcelo - Se Quer a Verdade
TTITLE1=Edson e Hudson - Comendo Um File
TTITLE2=Rio Negro e Solimoes - Deu Paixao
TTITLE3=Thaeme e Thiago - Foi Daquele Jeito
TTITLE4=Tom e Arnaldo - Eu Ja Bebi - Part. Ze Ricardo e Thiago
TTITLE5=Lucas e Diogo - Tomara Que Caia - Part. Israel Novaes
TTITLE6=Kaio e Bruninho - Sera Que Vai Rolar
TTITLE7=Gulilherme Valim - Ta Massa
TTITLE8=Edson e Hudson - So Penso Em Voce
TTITLE9=Joao Lucas e Marcelo - Se Beijar Na Boca Da Sapinh
TTITLE10=Mauricio e Eduardo - Carro Velho - Part. Humberto e Ronaldo
TTITLE11=Julio Ferraz - Enigmas - Part. Luiz Cláudio
TTITLE12=Otavio Augusto e Gabriel - Copacabana
TTITLE13=Rubens Junior - Chora - Part. Leo e Junior
TTITLE14=Matheus Fernandes - Mulherada Na Lancha -  Part. Garota Safada
TTITLE15=Emmanuel Campos - Ela e Top - Part. Guliherme Bittencourt
TTITLE16=Lu e Robertinho - Raridade
TTITLE17=Eduardo Melo - Dengosa
TTITLE18=Sergio Filho e Fernando - Em Outras Palavras - Part. Matogrosso e Mat
TTITLE18=hias
TTITLE19=Banda Garrafao - O Rei Da Pegacao
TTITLE20=Henrique e Juliano - Sai Fora Cupido
TTITLE21=Joao Lucas e Marcelo - Destilado
TTITLE22=Nelson Nascimento - Fazer Beber - Part. Gustavo Lima
TTITLE23=Paula Baluart - Perdeu
TTITLE24=Euripinho Sollo - Cabare da Lena
EXTD=
EXTT0=
EXTT1=
EXTT2=
EXTT3=
EXTT4=
EXTT5=
EXTT6=
EXTT7=
EXTT8=
EXTT9=
EXTT10=
EXTT11=
EXTT12=
EXTT13=
EXTT14=
EXTT15=
EXTT16=
EXTT17=
EXTT18=
EXTT19=
EXTT20=
EXTT21=
EXTT22=
EXTT23=
EXTT24=
PLAYORDER=
